<?xml version="1.0" standalone="no"?><!DOCTYPE svg PUBLIC "-//W3C//DTD SVG 1.1//EN" "http://www.w3.org/Graphics/SVG/1.1/DTD/svg11.dtd"><svg t="1681270117996" class="icon" viewBox="0 0 1024 1024" version="1.1" xmlns="http://www.w3.org/2000/svg" p-id="3022" xmlns:xlink="http://www.w3.org/1999/xlink" width="200" height="200"><path d="M 340.9 114 c -10.6 -10.7 -25.4 -16.8 -40.5 -16.5 l -183.6 -0.6 c -13.8 0.2 -25.9 4.9 -35 13.6 c -10.7 10.2 -16.5 25.4 -16.2 42.6 L 67 760.7 L 196.7 916 l 0.4 0.6 l 0.3 0.3 c 4.1 4.7 9.9 7.3 16.2 7.2 c 5.3 -0.1 10.2 -2.1 14 -5.7 c 0.6 -0.6 1.1 -1.1 1.6 -1.7 l 0.3 -0.3 l 129.3 -156.6 l -1.6 -605.3 c 0.2 -15.1 -5.7 -29.8 -16.3 -40.5 Z m -219.2 39 c 0 -0.1 0.1 -0.2 0.3 -0.2 l 179 0.7 c 0.1 0 0.1 0.1 0.2 0.2 l 0.3 50.7 l -179.5 -0.7 l -0.3 -50.7 Z m 90.2 695.6 l -89 -107.6 l -0.1 -481.1 l 179.5 0.7 l 0.1 481 l -90.5 107 Z M 961.6 889.6 L 469.5 110.5 C 464.6 102.6 457 99 449.3 99 c -12.2 0 -24.2 9.1 -24.2 24 v 779.1 c 0 13.2 10.7 24 24 24 h 492.1 c 18.7 0 30.2 -20.6 20.4 -36.5 Z m -472.5 -27.5 V 261.4 l 379.4 600.7 H 489.1 Z M 770.9 452 c 12.3 19.1 32.9 29.5 54.1 29.5 c 11.9 0 23.8 -3.3 34.6 -10.2 l 57.9 -37.1 c 29.8 -19.1 38.5 -58.8 19.4 -88.6 L 804.7 139.7 c -12.3 -19.1 -32.9 -29.5 -54.1 -29.5 c -11.9 0 -23.8 3.3 -34.6 10.2 l -57.9 37.1 c -29.8 19.1 -38.5 58.8 -19.4 88.6 L 770.9 452 Z m -78.2 -240.6 l 58 -37.2 h 0.1 l 132.1 205.9 v 0.1 L 825 417.3 h -0.1 L 692.7 211.5 v -0.1 Z" p-id="3023"></path><path d="M 549.3 508.3 c 0 -17.7 -14.3 -32 -32 -32 h -28 v 64 h 28 c 17.7 0 32 -14.3 32 -32 Z M 549.3 637 c 0 -17.7 -14.3 -32 -32 -32 h -28 v 64 h 28 c 17.7 0 32 -14.3 32 -32 Z M 517.7 733.7 h -28 v 64 h 28 c 17.7 0 32 -14.3 32 -32 s -14.4 -32 -32 -32 Z" p-id="3024"></path></svg>