<?xml version="1.0" standalone="no"?><!DOCTYPE svg PUBLIC "-//W3C//DTD SVG 1.1//EN" "http://www.w3.org/Graphics/SVG/1.1/DTD/svg11.dtd"><svg t="1681270261427" class="icon" viewBox="0 0 1024 1024" version="1.1" xmlns="http://www.w3.org/2000/svg" p-id="4969" xmlns:xlink="http://www.w3.org/1999/xlink" width="200" height="200"><path d="M779.36 239.02H399.09L243.22 394.89v424.07H525.7l4.06-265.08 19-31.08 31-10.78 199.6-9.68z" fill="#E9F1FF" p-id="4970"></path><path d="M823.8 907.98H576.74c-41.36 0-75-33.65-75-75V562.02c0-41.35 33.64-75 75-75H823.8c41.36 0 75 33.65 75 75v32.65c0 13.81-11.19 25-25 25s-25-11.19-25-25v-32.65c0-13.79-11.21-25-25-25H576.74c-13.79 0-25 11.21-25 25v270.96c0 13.79 11.21 25 25 25H823.8c13.79 0 25-11.21 25-25v-23.1c0-13.81 11.19-25 25-25s25 11.19 25 25v23.1c0 41.36-33.64 75-75 75zM670.84 439.62H245.69c-13.81 0-25-11.19-25-25s11.19-25 25-25h425.15c13.81 0 25 11.19 25 25s-11.19 25-25 25zM670.84 310.88H494.95c-13.81 0-25-11.19-25-25s11.19-25 25-25h175.89c13.81 0 25 11.19 25 25s-11.19 25-25 25zM421.58 568.36H245.69c-13.81 0-25-11.19-25-25s11.19-25 25-25h175.89c13.81 0 25 11.19 25 25s-11.19 25-25 25zM421.58 697.1H245.69c-13.81 0-25-11.19-25-25s11.19-25 25-25h175.89c13.81 0 25 11.19 25 25s-11.19 25-25 25z" fill="#2C5CCB" p-id="4971"></path><path d="M265.75 348.12l-125.58-0.13c-13.81-0.01-24.99-11.22-24.97-25.03 0.01-13.8 11.2-24.97 25-24.97h0.03l125.55 0.13c18.75 0 34.03-15.28 34.03-34.05V139.75c0-13.81 11.19-25 25-25s25 11.19 25 25v124.31c-0.01 46.35-37.71 84.06-84.06 84.06z" fill="#2C5CCB" p-id="4972"></path><path d="M522.67 843.96H190.2c-41.36 0-75-33.65-75-75V294.89a25 25 0 0 1 7.32-17.68l155.87-155.87a25 25 0 0 1 17.68-7.32h430.27c41.36 0 75 33.65 75 75v313.33c0 13.81-11.19 25-25 25s-25-11.19-25-25V189.02c0-13.79-11.21-25-25-25H306.42L165.2 305.25v463.71c0 13.79 11.21 25 25 25h332.48c13.81 0 25 11.19 25 25s-11.2 25-25.01 25z" fill="#2C5CCB" p-id="4973"></path><path d="M814.01 722.5H643.72c-13.81 0-25-11.19-25-25s11.19-25 25-25h170.29c13.81 0 25 11.19 25 25s-11.2 25-25 25z" fill="#2C5CCB" p-id="4974"></path><path d="M765.37 783.38c-6.4 0-12.8-2.44-17.68-7.32-9.76-9.76-9.76-25.59 0-35.36l43.21-43.21-43.21-43.21c-9.76-9.76-9.76-25.59 0-35.36 9.76-9.76 25.59-9.76 35.36 0l60.88 60.88a25 25 0 0 1 7.32 17.68 25 25 0 0 1-7.32 17.68l-60.88 60.88c-4.88 4.9-11.28 7.34-17.68 7.34z" fill="#2C5CCB" p-id="4975"></path></svg>