<?xml version="1.0" standalone="no"?><!DOCTYPE svg PUBLIC "-//W3C//DTD SVG 1.1//EN" "http://www.w3.org/Graphics/SVG/1.1/DTD/svg11.dtd"><svg t="1681279272279" class="icon" viewBox="0 0 1024 1024" version="1.1" xmlns="http://www.w3.org/2000/svg" p-id="6199" xmlns:xlink="http://www.w3.org/1999/xlink" width="200" height="200"><path d="M304 352a208 144 0 1 0 416 0 208 144 0 1 0-416 0Z" fill="#E0EBFE" p-id="6200"></path><path d="M218.432 108.896l-152.96 489.568a31.616 31.616 0 0 0-0.8 15.36c-0.128 1.152-0.672 2.144-0.672 3.328V864c0 35.296 28.704 64 64 64h768c35.296 0 64-28.704 64-64v-246.848c0-1.088-0.512-1.984-0.608-3.04 0.416-2.048 1.248-3.936 1.248-6.112 0-5.536-1.408-10.784-3.904-15.328L805.568 108.864A63.744 63.744 0 0 0 744.448 64H279.552c-28.128 0-52.672 18.016-61.088 44.896zM896 864H128v-224h768v224zM744.512 128l139.968 448H139.52L279.52 128h464.96z" fill="#5465CF" p-id="6201"></path><path d="M512 512c123.52 0 224-71.776 224-160s-100.48-160-224-160-224 71.776-224 160 100.48 160 224 160z m0-288c105.888 0 192 57.408 192 128s-86.112 128-192 128-192-57.408-192-128 86.112-128 192-128z" fill="#5465CF" p-id="6202"></path><path d="M512 416c53.856 0 96-28.096 96-64s-42.144-64-96-64-96 28.096-96 64 42.144 64 96 64z m0-96c36.64 0 64 16.896 64 32s-27.36 32-64 32-64-16.896-64-32 27.36-32 64-32zM240 768h544a16 16 0 1 0 0-32h-544a16 16 0 1 0 0 32z" fill="#5465CF" p-id="6203"></path></svg>