<?xml version="1.0" standalone="no"?><!DOCTYPE svg PUBLIC "-//W3C//DTD SVG 1.1//EN" "http://www.w3.org/Graphics/SVG/1.1/DTD/svg11.dtd"><svg t="1681269916301" class="icon" viewBox="0 0 1024 1024" version="1.1" xmlns="http://www.w3.org/2000/svg" p-id="2854" xmlns:xlink="http://www.w3.org/1999/xlink" width="200" height="200"><path d="M30.428357 128.231222L136.981444 24.387112l169.762546 166.602073L195.675942 297.993768 30.428357 128.231222zM1000.242049 838.886134l-162.538608 162.087112a25.283783 25.283783 0 0 1-36.571186 0l-292.569494-292.569494 10.384411-9.932915 6.320946-7.223938a398.219588 398.219588 0 0 1 42.440636-37.022683 210.397198 210.397198 0 0 1 41.086148-23.477799l9.029923-4.514961a345.846037 345.846037 0 0 0 42.440637 11.287403 334.107138 334.107138 0 0 0 70.884892 7.675435h2.708977a349.00651 349.00651 0 0 0 81.7208-9.481419l13.99638-3.611969 170.665538 170.665538a25.73528 25.73528 0 0 1 0 36.11969z" fill="#036EB8" opacity=".1" p-id="2855"></path><path d="M1003.854018 185.119735l-7.223938 8.12693-191.885856 191.885857a31.604729 31.604729 0 0 1-21.671815 9.481418h-121.000963a31.153233 31.153233 0 0 1-29.798745-31.153233V242.008248a30.701737 30.701737 0 0 1 9.029923-22.123311L831.833992 27.547585a55.98552 55.98552 0 0 1 8.12693-6.320946A290.312013 290.312013 0 0 0 466.122125 406.35284a25.283783 25.283783 0 0 1-2.708977 9.029922 62.757962 62.757962 0 0 1-4.514961 13.996381 205.882236 205.882236 0 0 1-21.220319 42.440636 299.341936 299.341936 0 0 1-39.280163 52.825047 278.573113 278.573113 0 0 1-19.86583 21.220319l-119.646475 118.291986a186.919399 186.919399 0 0 0-228.908539 72.690878 186.919399 186.919399 0 0 0 157.57215 287.15154A186.919399 186.919399 0 0 0 361.375022 767.549745l80.366312-80.817807 22.12331-22.123311 10.384411-9.932915 6.772442-7.223938a318.756269 318.756269 0 0 1 139.963801-87.590249h4.063465a216.266647 216.266647 0 0 0 32.959218 10.835907 278.121617 278.121617 0 0 0 76.302846 10.835907 254.192322 254.192322 0 0 0 26.186776 0h16.253861a214.460663 214.460663 0 0 0 37.474179-8.578426A280.379098 280.379098 0 0 0 938.838575 496.652066a291.215005 291.215005 0 0 0 65.015443-311.532331z m-97.523165 279.927602a239.29295 239.29295 0 0 1-130.030886 67.72442 270.897679 270.897679 0 0 1-45.149613 3.611969h-18.059845a242.001927 242.001927 0 0 1-77.657335-18.962838 45.149613 45.149613 0 0 0-17.608349-3.611969 28.895752 28.895752 0 0 0-10.835907 0 180.598453 180.598453 0 0 0-28.895753 9.481419 90.299226 90.299226 0 0 0-16.25386 6.320946 374.74179 374.74179 0 0 0-93.4597 62.757962c-7.675434 6.320946-14.447876 13.093388-22.12331 20.768822l-14.447876 18.962838-15.802365 15.350868-87.138753 86.235762a45.149613 45.149613 0 0 0-9.932915 49.213078 139.512305 139.512305 0 0 1-31.153233 153.960181 139.512305 139.512305 0 0 1-100.232142 41.98914 141.769785 141.769785 0 1 1 0-283.539571 148.090731 148.090731 0 0 1 54.179536 10.384411 45.149613 45.149613 0 0 0 17.156853 3.611969 45.149613 45.149613 0 0 0 31.604729-13.093387l104.295607-103.844111 16.253861-16.253861q9.481419-9.481419 17.608349-18.962837c11.287403-12.641892 21.671814-24.832287 30.250241-36.571187a277.218625 277.218625 0 0 0 27.089768-45.149613 213.55767 213.55767 0 0 0 14.899372-31.153233c4.063465-10.835907 6.772442-20.317326 9.481419-28.895753a38.828667 38.828667 0 0 0 0-20.317325 57.340009 57.340009 0 0 0-2.708977-8.126931 245.1624 245.1624 0 0 1 225.748066-340.87958h14.899372l-141.318289 141.769786a77.657335 77.657335 0 0 0-19.86583 54.179536v121.452459a70.884893 70.884893 0 0 0 8.12693 33.86221 62.306466 62.306466 0 0 0 18.962838 23.929295 57.340009 57.340009 0 0 0 16.705357 11.287403 81.269304 81.269304 0 0 0 32.507721 7.223939h121.000964a75.399854 75.399854 0 0 0 53.72804-22.574807l141.318289-141.318289a244.710904 244.710904 0 0 1-73.142374 189.176879z" fill="#3E3A39" p-id="2856"></path><path d="M252.564454 772.967699a90.299226 90.299226 0 0 0-63.660954-26.638272 59.597489 59.597489 0 0 0-12.641892 0 86.687257 86.687257 0 0 0-52.825048 25.283784 90.299226 90.299226 0 0 0 64.112451 155.766165A90.299226 90.299226 0 0 0 252.564454 902.998585a90.299226 90.299226 0 0 0 25.283784-52.373551 90.299226 90.299226 0 0 0-25.283784-77.657335z m-19.86583 70.884893a40.183156 40.183156 0 0 1-12.641891 25.283783 45.149613 45.149613 0 0 1-32.507722 13.99638 45.149613 45.149613 0 0 1-32.507721-13.544884 45.149613 45.149613 0 0 1-13.544884-32.507721 47.85859 47.85859 0 0 1 13.544884-32.959218 45.149613 45.149613 0 0 1 25.735279-12.190395h6.320946a45.149613 45.149613 0 0 1 31.153233 13.093387 45.149613 45.149613 0 0 1 13.544884 34.313706s1.354488 2.708977 0.902992 4.514962z" fill="#E9454E" p-id="2857"></path><path d="M316.225409 162.544928L169.03767 14.454197A49.213078 49.213078 0 0 0 135.626956 0.006321a45.149613 45.149613 0 0 0-33.86221 14.447876L14.174496 100.689958a48.761582 48.761582 0 0 0 0 68.175916L162.716724 316.053613a45.149613 45.149613 0 0 0 34.313706 13.99638A48.761582 48.761582 0 0 0 230.89264 316.053613l20.768822-21.220318 32.507721-32.056225 32.056226-32.056226A45.149613 45.149613 0 0 0 316.225409 162.544928z m-31.604729 36.119691l-90.299227 86.235761L45.32773 132.294688 135.626956 45.155934l149.44522 149.44522a2.708977 2.708977 0 0 1 0 4.063465z" fill="#3E3A39" p-id="2858"></path><path d="M386.658805 361.203227a334.107138 334.107138 0 0 0 11.7389 45.149613 83.075288 83.075288 0 0 1-8.578427 18.511341L251.661462 295.736287l-8.578427-8.12693a22.12331 22.12331 0 0 1 0-31.604729 22.574807 22.574807 0 0 1 31.60473 0l10.384411 9.029922z" fill="#3E3A39" p-id="2859"></path><path d="M846.281868 900.289608a24.380791 24.380791 0 0 1-16.253861 6.772442 21.220318 21.220318 0 0 1-15.802364-6.772442l-246.516889-246.065392a210.397198 210.397198 0 0 1 41.086148-23.477799l237.486966 237.486966a23.026303 23.026303 0 0 1 0 32.056225zM900.009908 846.110072a19.86583 19.86583 0 0 1-15.350869 6.320946 20.317326 20.317326 0 0 1-15.802364-6.320946l-208.591213-208.591213a334.107138 334.107138 0 0 0 70.884892 7.675435L900.009908 812.699359a22.574807 22.574807 0 0 1 0 33.410713z" fill="#036EB8" p-id="2860"></path><path d="M988.051653 744.523443l-124.161436-124.161437a256.901299 256.901299 0 0 1-34.313706 11.7389l-13.99638 3.611969 140.866793 140.866793a70.884893 70.884893 0 0 1 0 100.683638l-79.011823 79.011823a71.336389 71.336389 0 0 1-101.135134 0l-257.352795-257.804292-10.384411 9.932915-21.671814 22.123311 257.804291 257.804291a116.486002 116.486002 0 0 0 82.172296 33.86221 115.131514 115.131514 0 0 0 82.172296-33.86221l79.011823-79.011823a115.58301 115.58301 0 0 0 0-164.796088z" fill="#3E3A39" p-id="2861"></path></svg>