<?xml version="1.0" standalone="no"?><!DOCTYPE svg PUBLIC "-//W3C//DTD SVG 1.1//EN" "http://www.w3.org/Graphics/SVG/1.1/DTD/svg11.dtd"><svg t="1681377339494" class="icon" viewBox="0 0 1024 1024" version="1.1" xmlns="http://www.w3.org/2000/svg" p-id="4584" xmlns:xlink="http://www.w3.org/1999/xlink" width="200" height="200"><path d="M870.4 1024h-716.8A51.2 51.2 0 0 1 102.4 972.8v-921.6A51.2 51.2 0 0 1 153.6 0h569.685333a42.666667 42.666667 0 0 1 30.037334 12.288l155.989333 155.989333a42.666667 42.666667 0 0 1 12.288 30.037334V972.8a51.2 51.2 0 0 1-51.2 51.2zM153.6 34.133333a17.066667 17.066667 0 0 0-17.066667 17.066667v921.6a17.066667 17.066667 0 0 0 17.066667 17.066667h716.8a17.066667 17.066667 0 0 0 17.066667-17.066667V198.314667a8.192 8.192 0 0 0-2.389334-5.802667l-155.989333-155.989333a8.192 8.192 0 0 0-5.802667-2.389334z" fill="#4D4D4D" p-id="4585"></path><path d="M904.533333 204.8h-170.666666a17.066667 17.066667 0 0 1-17.066667-17.066667v-170.666666h34.133333V170.666667h153.6z" fill="#4D4D4D" p-id="4586"></path><path d="M204.8 170.666667h443.733333v34.133333H204.8z" fill="#B3B3B3" p-id="4587"></path><path d="M204.8 307.2h614.4v34.133333H204.8z" fill="#808080" p-id="4588"></path><path d="M238.933333 443.733333h546.133334v34.133334H238.933333z" fill="#B3B3B3" p-id="4589"></path><path d="M238.933333 341.333333h546.133334v102.4H238.933333z" fill="#05AFC8" p-id="4590"></path><path d="M443.733333 614.4h341.333334v102.4H443.733333z" fill="#F2F2F2" p-id="4591"></path><path d="M238.933333 580.266667h546.133334v34.133333H238.933333z" fill="#B3B3B3" p-id="4592"></path><path d="M204.8 853.333333h614.4v34.133334H204.8z" fill="#808080" p-id="4593"></path><path d="M204.8 887.466667V307.2h34.133333v580.266667zM785.066667 887.466667V307.2h34.133333v580.266667z" fill="#808080" p-id="4594"></path><path d="M238.933333 716.8h546.133334v34.133333H238.933333z" fill="#B3B3B3" p-id="4595"></path><path d="M409.6 853.333333V477.866667h34.133333v375.466666z" fill="#B3B3B3" p-id="4596"></path></svg>